<?xml version="1.0" encoding="UTF-8" standalone="no"?>
<!-- Created with Inkscape (http://www.inkscape.org/) -->

<svg
   xmlns:dc="http://purl.org/dc/elements/1.1/"
   xmlns:cc="http://creativecommons.org/ns#"
   xmlns:rdf="http://www.w3.org/1999/02/22-rdf-syntax-ns#"
   xmlns:svg="http://www.w3.org/2000/svg"
   xmlns="http://www.w3.org/2000/svg"
   xmlns:sodipodi="http://sodipodi.sourceforge.net/DTD/sodipodi-0.dtd"
   xmlns:inkscape="http://www.inkscape.org/namespaces/inkscape"
   width="987.99994"
   height="177"
   viewBox="0 0 261.40831 46.831251"
   version="1.1"
   id="svg8"
   inkscape:version="0.92.2 (5c3e80d, 2017-08-06)"
   sodipodi:docname="drawing.svg">
  <defs
     id="defs2" />
  <sodipodi:namedview
     id="base"
     pagecolor="#ffffff"
     bordercolor="#666666"
     borderopacity="1.0"
     inkscape:pageopacity="0.0"
     inkscape:pageshadow="2"
     inkscape:zoom="0.7"
     inkscape:cx="763.30729"
     inkscape:cy="197.59762"
     inkscape:document-units="px"
     inkscape:current-layer="layer1"
     showgrid="false"
     units="px"
     fit-margin-top="0"
     fit-margin-left="0"
     fit-margin-right="0"
     fit-margin-bottom="0"
     inkscape:lockguides="false"
     inkscape:window-width="1280"
     inkscape:window-height="725"
     inkscape:window-x="-9"
     inkscape:window-y="-9"
     inkscape:window-maximized="1" />
  <metadata
     id="metadata5">
    <rdf:RDF>
      <cc:Work
         rdf:about="">
        <dc:format>image/svg+xml</dc:format>
        <dc:type
           rdf:resource="http://purl.org/dc/dcmitype/StillImage" />
        <dc:title></dc:title>
      </cc:Work>
    </rdf:RDF>
  </metadata>
  <g
     inkscape:label="Layer 1"
     inkscape:groupmode="layer"
     id="layer1"
     transform="translate(75.519638,-132.97723)">
    <path
       style="color:#000000;font-style:normal;font-variant:normal;font-weight:normal;font-stretch:normal;font-size:medium;line-height:normal;font-family:sans-serif;font-variant-ligatures:normal;font-variant-position:normal;font-variant-caps:normal;font-variant-numeric:normal;font-variant-alternates:normal;font-feature-settings:normal;text-indent:0;text-align:start;text-decoration:none;text-decoration-line:none;text-decoration-style:solid;text-decoration-color:#000000;letter-spacing:normal;word-spacing:normal;text-transform:none;writing-mode:lr-tb;direction:ltr;text-orientation:mixed;dominant-baseline:auto;baseline-shift:baseline;text-anchor:start;white-space:normal;shape-padding:0;clip-rule:nonzero;display:inline;overflow:visible;visibility:visible;opacity:1;isolation:auto;mix-blend-mode:normal;color-interpolation:sRGB;color-interpolation-filters:linearRGB;solid-color:#000000;solid-opacity:1;vector-effect:none;fill:#41535d;fill-opacity:1;fill-rule:nonzero;stroke:none;stroke-width:2.99005628;stroke-linecap:round;stroke-linejoin:round;stroke-miterlimit:4;stroke-dasharray:none;stroke-dashoffset:0;stroke-opacity:1;color-rendering:auto;image-rendering:auto;shape-rendering:auto;text-rendering:auto;enable-background:accumulate"
       d="m -71.385576,132.98874 c -2.268178,0 -4.140625,1.8744 -4.140625,4.14258 v 38.54971 c 0,2.26818 1.872447,4.14062 4.140625,4.14062 h 41.229326 c 2.268177,0 4.142578,-1.87244 4.142578,-4.14062 v -38.54971 c 0,-2.26818 -1.874401,-4.14258 -4.142578,-4.14258 z m 0,2.99024 h 41.229326 c 0.663406,0 1.152344,0.48894 1.152344,1.15234 v 38.54971 c 0,0.6634 -0.488938,1.15039 -1.152344,1.15039 h -41.229326 c -0.663406,0 -1.150391,-0.48699 -1.150391,-1.15039 v -38.54971 c 0,-0.6634 0.486985,-1.15234 1.150391,-1.15234 z"
       id="rect841"
       inkscape:connector-curvature="0"
       sodipodi:nodetypes="ssssssssssssssssss" />
    <path
       style="color:#000000;font-style:normal;font-variant:normal;font-weight:normal;font-stretch:normal;font-size:medium;line-height:normal;font-family:sans-serif;font-variant-ligatures:normal;font-variant-position:normal;font-variant-caps:normal;font-variant-numeric:normal;font-variant-alternates:normal;font-feature-settings:normal;text-indent:0;text-align:start;text-decoration:none;text-decoration-line:none;text-decoration-style:solid;text-decoration-color:#000000;letter-spacing:normal;word-spacing:normal;text-transform:none;writing-mode:lr-tb;direction:ltr;text-orientation:mixed;dominant-baseline:auto;baseline-shift:baseline;text-anchor:start;white-space:normal;shape-padding:0;clip-rule:nonzero;display:inline;overflow:visible;visibility:visible;opacity:1;isolation:auto;mix-blend-mode:normal;color-interpolation:sRGB;color-interpolation-filters:linearRGB;solid-color:#000000;solid-opacity:1;vector-effect:none;fill:#41535d;fill-opacity:1;fill-rule:nonzero;stroke:none;stroke-width:2.99005628;stroke-linecap:round;stroke-linejoin:round;stroke-miterlimit:4;stroke-dasharray:none;stroke-dashoffset:0;stroke-opacity:1;color-rendering:auto;image-rendering:auto;shape-rendering:auto;text-rendering:auto;enable-background:accumulate"
       d="m -68.431641,138.1543 a 1.4951776,1.4951776 0 0 0 -1.496093,1.49414 v 33.35547 a 1.4951776,1.4951776 0 0 0 1.496093,1.49609 h 35.529297 a 1.4951776,1.4951776 0 0 0 1.494141,-1.49609 v -33.35547 a 1.4951776,1.4951776 0 0 0 -1.494141,-1.49414 z m 1.494141,2.98828 h 32.539062 v 30.36719 H -66.9375 Z"
       id="rect843"
       inkscape:connector-curvature="0" />
    <path
       style="fill:#41535d;stroke:none;stroke-width:0.26458332px;stroke-linecap:butt;stroke-linejoin:miter;stroke-opacity:1;fill-opacity:1"
       d="m -64.70007,147.20803 h 4.677456 l 3.732515,8.7407 3.16555,-4.96093 h 1.984375 l -1.889881,14.50483 h -4.063244 z"
       id="path845"
       inkscape:connector-curvature="0" />
    <path
       inkscape:connector-curvature="0"
       id="path847"
       d="m -36.667427,147.20803 h -4.677456 l -3.732515,8.7407 -3.16555,-4.96093 h -1.984375 l 1.889881,14.50483 h 4.063244 z"
       style="fill:#41535d;fill-opacity:1;stroke:none;stroke-width:0.26458332px;stroke-linecap:butt;stroke-linejoin:miter;stroke-opacity:1" />
    <path
       style="fill:#41535d;stroke:none;stroke-width:0.26458332px;stroke-linecap:butt;stroke-linejoin:miter;stroke-opacity:1;fill-opacity:1"
       d="m -2.4757397,141.25491 4.0632432,18.70982 5.4334092,-18.70982 h 7.7485103 l 5.480656,18.56808 4.11049,-18.56808 h 7.276042 L 24.124333,171.493 H 16.801045 L 10.70618,150.9878 4.7530552,171.493 H -2.570233 l -7.3232909,-30.23809 z"
       id="path855"
       inkscape:connector-curvature="0"
       sodipodi:nodetypes="cccccccccccccc" />
    <path
       style="opacity:1;fill:#41535d;fill-opacity:1;stroke:none;stroke-width:2.99005604;stroke-linecap:round;stroke-linejoin:round;stroke-miterlimit:4;stroke-dasharray:none;stroke-opacity:1"
       d="m 35.038399,141.25491 h 7.370536 v 30.2381 h -7.370536 z"
       id="rect857" />
    <path
       style="fill:#41535d;fill-opacity:1;stroke:none;stroke-width:0.99999994px;stroke-linecap:butt;stroke-linejoin:miter;stroke-opacity:1"
       d="M 470.17773 31.285156 L 470.17773 145.57227 L 497.5 145.57227 L 497.5 100.21484 L 507.14258 100.21484 L 531.96484 145.57227 L 564.10742 145.57227 L 534.64258 96.107422 C 534.64258 96.107422 558.21484 90.572253 558.21484 65.572266 C 558.21484 40.57224 535.17885 31.285156 521.60742 31.285156 L 470.17773 31.285156 z M 496.78516 53.427734 L 514.82227 53.427734 C 514.82227 53.427734 530.71484 54.499712 530.71484 66.642578 C 530.71484 80.035258 512.5 79.857422 512.5 79.857422 L 496.78516 79.857422 L 496.78516 53.427734 z "
       transform="matrix(0.26458333,0,0,0.26458333,-75.519638,132.97723)"
       id="path860" />
    <path
       style="fill:#41535d;stroke:none;stroke-width:0.99999994px;stroke-linecap:butt;stroke-linejoin:miter;stroke-opacity:1;fill-opacity:1"
       d="M 563.08008 31.285156 L 563.08008 54.8125 L 595.35742 54.8125 L 595.35742 145.57227 L 623.03516 145.57227 L 623.03516 54.8125 L 655.71484 54.8125 L 655.71484 31.285156 L 623.03516 31.285156 L 595.35742 31.285156 L 563.08008 31.285156 z "
       transform="matrix(0.26458333,0,0,0.26458333,-75.519638,132.97723)"
       id="path865" />
    <path
       style="opacity:1;fill:#41535d;fill-opacity:1;stroke:none;stroke-width:11.30099964;stroke-linecap:round;stroke-linejoin:round;stroke-miterlimit:4;stroke-dasharray:none;stroke-opacity:1"
       d="M 783.92773 31.285156 L 783.92773 145.57227 L 810.71484 145.57227 L 864.64258 145.57227 L 864.64258 122.71484 L 810.71484 122.71484 L 810.71484 98.785156 L 858.21484 98.785156 L 858.21484 74.857422 L 810.71484 74.857422 L 810.71484 54.5 L 862.5 54.5 L 862.5 31.285156 L 810.71484 31.285156 L 783.92773 31.285156 z "
       transform="matrix(0.26458333,0,0,0.26458333,-75.519638,132.97723)"
       id="rect870" />
    <path
       style="opacity:1;fill:#41535d;fill-opacity:1;stroke:none;stroke-width:11.30099964;stroke-linecap:round;stroke-linejoin:round;stroke-miterlimit:4;stroke-dasharray:none;stroke-opacity:1"
       d="M 883.92773 31.285156 L 883.92773 145.57227 L 909.64258 145.57227 L 909.64258 71.841797 L 956.48828 145.57227 L 961.78516 145.57227 L 961.79102 145.57227 L 988 145.57227 L 988 31.285156 L 961.78516 31.285156 L 961.78516 105.64844 L 915.70312 31.285156 L 909.64258 31.285156 L 883.92773 31.285156 z "
       transform="matrix(0.26458333,0,0,0.26458333,-75.519638,132.97723)"
       id="rect879" />
    <path
       style="opacity:1;fill:#41535d;fill-opacity:1;stroke:none;stroke-width:11.30099964;stroke-linecap:round;stroke-linejoin:round;stroke-miterlimit:4;stroke-dasharray:none;stroke-opacity:1"
       d="m 716.78516,31.285156 c -35.71431,0 -55.75,28.571978 -55.75,55.714844 0,27.14287 16.82139,58.57227 55.75,58.57227 41.42857,0 38.73242,-6.69727 38.73242,-6.69727 l -0.0898,-60.089844 h -41.85546 v 22.500004 h 21.60546 v 20.47265 L 735,121.64258 c 0,0 0.35661,2.67969 -15.71484,2.67969 -16.07142,0 -36.25,-8.57227 -36.25,-37.32227 0,0 8.4e-4,-35 33.57226,-35 19.28572,0 26.60742,10.357422 26.60742,10.357422 l 12.67718,-14.106864 c 0,0 -9.46403,-16.965402 -39.10686,-16.965402 z"
       transform="matrix(0.26458333,0,0,0.26458333,-75.519638,132.97723)"
       id="rect890"
       inkscape:connector-curvature="0"
       sodipodi:nodetypes="ssscccccccscsccs" />
  </g>
</svg>
